<?xml version="1.0" encoding="UTF-8" standalone="no"?>
<!-- Created with Inkscape (http://www.inkscape.org/) -->

<svg
   xmlns:dc="http://purl.org/dc/elements/1.1/"
   xmlns:cc="http://creativecommons.org/ns#"
   xmlns:rdf="http://www.w3.org/1999/02/22-rdf-syntax-ns#"
   xmlns:svg="http://www.w3.org/2000/svg"
   xmlns="http://www.w3.org/2000/svg"
   xmlns:sodipodi="http://sodipodi.sourceforge.net/DTD/sodipodi-0.dtd"
   xmlns:inkscape="http://www.inkscape.org/namespaces/inkscape"
   width="16"
   height="16"
   id="svg2"
   version="1.1"
   inkscape:version="0.48.5 r10040"
   sodipodi:docname="favicon.svg">
  <defs
     id="defs4" />
  <sodipodi:namedview
     id="base"
     pagecolor="#ffffff"
     bordercolor="#666666"
     borderopacity="1.0"
     inkscape:pageopacity="0.0"
     inkscape:pageshadow="2"
     inkscape:zoom="35.375"
     inkscape:cx="8"
     inkscape:cy="8"
     inkscape:document-units="px"
     inkscape:current-layer="layer1"
     showgrid="false"
     inkscape:showpageshadow="false"
     inkscape:window-width="1366"
     inkscape:window-height="716"
     inkscape:window-x="0"
     inkscape:window-y="0"
     inkscape:window-maximized="1"
     showguides="true"
     inkscape:guide-bbox="true" />
  <metadata
     id="metadata7">
    <rdf:RDF>
      <cc:Work
         rdf:about="">
        <dc:format>image/svg+xml</dc:format>
        <dc:type
           rdf:resource="http://purl.org/dc/dcmitype/StillImage" />
        <dc:title></dc:title>
      </cc:Work>
    </rdf:RDF>
  </metadata>
  <g
     inkscape:label="Camada 1"
     inkscape:groupmode="layer"
     id="layer1"
     transform="translate(0,-1036.3622)">
    <rect
       style="fill:#5f4586;fill-opacity:1;stroke:none"
       id="rect3118"
       width="16"
       height="16"
       x="-1.65e-07"
       y="1036.3622"
       ry="2.1484098" />
    <path
       style="fill:#ffffff"
       d="m 6.0495875,1049.3166 c -0.8266825,-0.3074 -1.6064014,-0.998 -1.9545215,-1.731 -0.6333541,-1.3337 -0.4006452,-2.9573 0.6407998,-4.4709 0.3682539,-0.5352 1.1811016,-1.4525 1.7011798,-1.9198 0.7700221,-0.6919 1.357211,-1.5572 1.4499006,-2.1366 0.019795,-0.1238 0.01266,-0.3288 -0.015855,-0.4558 -0.049448,-0.22 -0.046813,-0.2277 0.057028,-0.1648 0.1314648,0.08 0.57328,0.6551 0.7121004,0.9276 0.3099288,0.6086 0.3540855,1.2545 0.1411818,2.0651 -0.1705688,0.6494 -0.1803023,1.0926 -0.030444,1.3863 0.1555376,0.3049 0.3593247,0.4487 0.6356182,0.4484 0.3880463,-0 0.5731597,-0.1612 0.7248965,-0.6301 0.03084,-0.095 0.04658,-0.094 0.269765,0.028 0.130355,0.071 0.47583,0.3671 0.767722,0.6581 0.584812,0.583 0.866953,1.0535 1.035107,1.7258 0.124179,0.4966 0.08064,1.3977 -0.09114,1.8864 -0.254673,0.7245 -0.919222,1.5143 -1.643533,1.9533 -0.311028,0.1885 -0.9270332,0.4581 -0.9634525,0.4217 -0.011532,-0.011 0.1396083,-0.1712 0.3358687,-0.3548 0.6298228,-0.5891 0.8460148,-1.2026 0.6890838,-1.9552 -0.167279,-0.8023 -0.6578485,-1.3894 -1.8140703,-2.1712 -1.0185589,-0.6887 -1.2390665,-0.9177 -1.4161247,-1.4705 -0.028642,-0.089 -0.045885,-0.093 -0.1249357,-0.028 -0.1675748,0.1386 -0.2943831,0.5072 -0.2943831,0.8556 0,0.3959 0.102383,0.6444 0.4610964,1.1188 0.2941584,0.389 0.371861,0.5639 0.371861,0.8368 0,0.4141 -0.2853484,0.6898 -0.7137399,0.6898 -0.3711246,0 -0.6785997,-0.3394 -0.6785997,-0.7491 0,-0.2675 -0.1077424,-0.2559 -0.3642297,0.039 -0.2901535,0.3337 -0.5645243,0.9274 -0.6101205,1.3203 -0.045157,0.389 0.068073,0.8555 0.2912842,1.1999 0.1646073,0.2539 0.5947282,0.6961 0.677149,0.6961 0.03027,0 0.070526,0.025 0.089457,0.056 0.042681,0.069 0.064897,0.074 -0.3359449,-0.075 z m 3.1912699,0.066 c 0.032364,-0.032 0.091717,-0.048 0.1318974,-0.034 0.041711,0.014 0.016466,0.039 -0.058842,0.059 -0.092639,0.024 -0.1143834,0.017 -0.073055,-0.024 z"
       id="path3888"
       inkscape:connector-curvature="0" />
  </g>
</svg>
