<?xml version="1.0" encoding="UTF-8" standalone="no"?>
<!-- Created with Inkscape (http://www.inkscape.org/) -->

<svg
   xmlns:dc="http://purl.org/dc/elements/1.1/"
   xmlns:cc="http://creativecommons.org/ns#"
   xmlns:rdf="http://www.w3.org/1999/02/22-rdf-syntax-ns#"
   xmlns:svg="http://www.w3.org/2000/svg"
   xmlns="http://www.w3.org/2000/svg"
   xmlns:sodipodi="http://sodipodi.sourceforge.net/DTD/sodipodi-0.dtd"
   xmlns:inkscape="http://www.inkscape.org/namespaces/inkscape"
   width="140.03125"
   height="36"
   id="svg2"
   version="1.1"
   inkscape:version="0.48.5 r10040"
   sodipodi:docname="logo.svg"
   inkscape:export-filename="/home/natanfelles/Projetos/GitHub/codestrap/public/assets/img/logo.png"
   inkscape:export-xdpi="90"
   inkscape:export-ydpi="90">
  <defs
     id="defs4" />
  <sodipodi:namedview
     id="base"
     pagecolor="#ffffff"
     bordercolor="#666666"
     borderopacity="1.0"
     inkscape:pageopacity="0.0"
     inkscape:pageshadow="2"
     inkscape:zoom="1"
     inkscape:cx="347.7463"
     inkscape:cy="-30.974636"
     inkscape:document-units="px"
     inkscape:current-layer="layer1"
     showgrid="false"
     inkscape:window-width="1366"
     inkscape:window-height="716"
     inkscape:window-x="0"
     inkscape:window-y="0"
     inkscape:window-maximized="1"
     showguides="false"
     inkscape:guide-bbox="true"
     fit-margin-top="0"
     fit-margin-left="0"
     fit-margin-right="0"
     fit-margin-bottom="0"
     inkscape:showpageshadow="false">
    <sodipodi:guide
       orientation="0,1"
       position="593.73939,-595.49037"
       id="guide3105" />
  </sodipodi:namedview>
  <metadata
     id="metadata7">
    <rdf:RDF>
      <cc:Work
         rdf:about="">
        <dc:format>image/svg+xml</dc:format>
        <dc:type
           rdf:resource="http://purl.org/dc/dcmitype/StillImage" />
        <dc:title></dc:title>
      </cc:Work>
    </rdf:RDF>
  </metadata>
  <g
     inkscape:label="Camada 1"
     inkscape:groupmode="layer"
     id="layer1"
     transform="translate(1246.1929,122.36041)">
    <g
       id="g3236"
       transform="matrix(0.24139855,0,0,0.24139855,-988.55116,-115.06711)">
      <path
         inkscape:connector-curvature="0"
         id="path3888"
         d="m -1036.1395,117.27484 c -11.1725,-4.15452 -21.7102,-13.48779 -26.4151,-23.394216 -8.5596,-18.024701 -5.4146,-39.967359 8.6603,-60.423393 4.977,-7.233128 15.9625,-19.630272 22.9912,-25.945741 10.4067,-9.3509091 18.3424,-21.045279 19.5952,-28.875759 0.2675,-1.673139 0.171,-4.443675 -0.2143,-6.160054 -0.6683,-2.973264 -0.6327,-3.077334 0.7707,-2.227243 1.7768,1.081182 7.7478,8.853553 9.6239,12.536345 4.1886,8.225119 4.7854,16.9543313 1.9081,27.909442 -2.3052,8.776526 -2.4368,14.766286 -0.4115,18.735598 2.1021,4.120662 4.8562,6.064091 8.5903,6.060041 5.24435,0 7.74612,-2.178585 9.79682,-8.515687 0.4168,-1.283911 0.62952,-1.270394 3.64583,0.378409 1.76171,0.959554 6.43075,4.961301 10.37562,8.894111 7.90363,7.879138 11.7167,14.237856 13.98927,23.323869 1.67827,6.711452 1.08984,18.889661 -1.23173,25.494355 -3.44186,9.791483 -12.42312,20.465483 -22.21205,26.398543 -4.20348,2.54752 -12.52866,6.19112 -13.02086,5.69917 -0.1559,-0.14872 1.8868,-2.31373 4.53918,-4.79506 8.51193,-7.96161 11.43373,-16.25297 9.31284,-26.424201 -2.26075,-10.842934 -8.8907,-18.777492 -24.51682,-29.343359 -13.7657,-9.307661 -16.7458,-12.402553 -19.1386,-19.873544 -0.3872,-1.202825 -0.6202,-1.256885 -1.6886,-0.378416 -2.2647,1.873156 -3.9785,6.854712 -3.9785,11.563274 0,5.350522 1.3837,8.708949 6.2316,15.120382 3.9756,5.257264 5.0257,7.621013 5.0257,11.309199 0,5.59649 -3.8565,9.322522 -9.6461,9.322522 -5.0157,0 -9.1711,-4.586934 -9.1711,-10.123947 0,-3.615216 -1.4562,-3.458448 -4.9225,0.527078 -3.9214,4.50989 -7.6295,12.53364 -8.2457,17.843611 -0.6103,5.257261 0.92,11.561891 3.9366,16.216391 2.2247,3.43145 8.0377,9.40776 9.1516,9.40776 0.409,0 0.9531,0.33781 1.209,0.75683 0.5768,0.93246 0.8771,1.0001 -4.5402,-1.01367 z m 43.1294,0.89198 c 0.4374,-0.43248 1.2396,-0.64872 1.7826,-0.45963 0.5637,0.18921 0.2225,0.52714 -0.7952,0.79744 -1.252,0.32435 -1.5459,0.22981 -0.9874,-0.32436 z"
         style="fill:#5f4586;fill-opacity:1" />
      <text
         sodipodi:linespacing="125%"
         id="text3099"
         y="99.252792"
         x="-921.15497"
         style="font-size:52.77912521px;font-style:normal;font-weight:normal;line-height:125%;letter-spacing:0px;word-spacing:0px;fill:#5f4586;fill-opacity:1;stroke:none;font-family:Sans"
         xml:space="preserve"><tspan
           style="font-size:95.00241852px;font-style:normal;font-variant:normal;font-weight:bold;font-stretch:normal;fill:#5f4586;fill-opacity:1;font-family:Helvetica;-inkscape-font-specification:Helvetica Bold"
           y="99.252792"
           x="-921.15497"
           id="tspan3101"
           sodipodi:role="line">Codestrap</tspan></text>
    </g>
  </g>
</svg>
